<svg width="786" height="786" viewBox="0 0 786 786" fill="none" xmlns="http://www.w3.org/2000/svg">
<path fill-rule="evenodd" clip-rule="evenodd" d="M44.468 349.434L741.531 349.434L741.531 436.567L44.468 436.567L44.468 349.434Z" fill="#17191B"/>
<path fill-rule="evenodd" clip-rule="evenodd" d="M151.496 701.918C187.687 683.242 215.372 647.488 234.294 609.643C263.142 551.949 279.727 475.293 279.727 393.001C279.727 310.708 263.142 234.053 234.294 176.358C215.372 138.514 187.687 102.759 151.496 84.0832C120.741 108.16 93.6738 136.729 71.2803 168.804C81.4085 160.558 90.3339 157.742 96.7477 157.742C109.854 157.742 133.447 169.499 156.36 215.325C177.97 258.545 192.594 321.302 192.594 393.001C192.594 464.699 177.97 527.456 156.36 570.676C133.447 616.503 109.854 628.259 96.7477 628.259C90.334 628.259 81.4086 625.444 71.2805 617.198C93.674 649.272 120.742 677.842 151.496 701.918Z" fill="#E59700"/>
<path fill-rule="evenodd" clip-rule="evenodd" d="M785.097 394.059C785.098 393.706 785.098 393.354 785.098 393.001C785.098 392.648 785.098 392.295 785.097 391.942C785.097 392.295 785.098 392.648 785.098 393.001C785.098 393.354 785.097 393.707 785.097 394.059ZM714.721 617.196C704.592 625.444 695.666 628.259 689.252 628.259C676.146 628.259 652.552 616.503 629.639 570.676C608.029 527.456 593.405 464.699 593.405 393.001C593.405 321.302 608.029 258.545 629.639 215.325C652.552 169.499 676.146 157.742 689.252 157.742C695.666 157.742 704.592 160.558 714.721 168.805C692.327 136.73 665.259 108.16 634.504 84.0829C598.312 102.759 570.627 138.513 551.705 176.358C522.858 234.053 506.272 310.708 506.272 393.001C506.272 475.293 522.858 551.949 551.705 609.643C570.627 647.488 598.312 683.242 634.504 701.918C665.259 677.841 692.327 649.271 714.721 617.196Z" fill="#E59700"/>
<path d="M393 44.4684V741.532" stroke="#17191B" stroke-width="87.1329"/>
<path fill-rule="evenodd" clip-rule="evenodd" d="M436.566 436.567L549.839 436.567V349.434L436.566 349.434V436.567ZM349.433 349.434L236.161 349.434L236.161 436.567L349.433 436.567V349.434Z" fill="#E59700"/>
<path fill-rule="evenodd" clip-rule="evenodd" d="M151.496 701.918C187.687 683.242 215.372 647.488 234.294 609.643C263.142 551.949 279.727 475.293 279.727 393.001C279.727 310.708 263.142 234.053 234.294 176.358C215.372 138.514 187.687 102.759 151.496 84.0832C120.741 108.16 93.6738 136.729 71.2803 168.804C81.4085 160.558 90.3339 157.742 96.7477 157.742C109.854 157.742 133.447 169.499 156.36 215.325C177.97 258.545 192.594 321.302 192.594 393.001C192.594 464.699 177.97 527.456 156.36 570.676C133.447 616.503 109.854 628.259 96.7477 628.259C90.334 628.259 81.4086 625.444 71.2805 617.198C93.674 649.272 120.742 677.842 151.496 701.918Z" fill="#E59700"/>
<path fill-rule="evenodd" clip-rule="evenodd" d="M785.097 394.059C785.098 393.706 785.098 393.354 785.098 393.001C785.098 392.648 785.098 392.295 785.097 391.942C785.097 392.295 785.098 392.648 785.098 393.001C785.098 393.354 785.097 393.707 785.097 394.059ZM714.721 617.196C704.592 625.444 695.666 628.259 689.252 628.259C676.146 628.259 652.552 616.503 629.639 570.676C608.029 527.456 593.405 464.699 593.405 393.001C593.405 321.302 608.029 258.545 629.639 215.325C652.552 169.499 676.146 157.742 689.252 157.742C695.666 157.742 704.592 160.558 714.721 168.805C692.327 136.73 665.259 108.16 634.504 84.0829C598.312 102.759 570.627 138.513 551.705 176.358C522.858 234.053 506.272 310.708 506.272 393.001C506.272 475.293 522.858 551.949 551.705 609.643C570.627 647.488 598.312 683.242 634.504 701.918C665.259 677.841 692.327 649.271 714.721 617.196Z" fill="#E59700"/>
<path fill-rule="evenodd" clip-rule="evenodd" d="M436.566 436.567L549.839 436.567V349.434L436.566 349.434V436.567ZM349.433 349.434L236.161 349.434L236.161 436.567L349.433 436.567V349.434Z" fill="#E59700"/>
<path fill-rule="evenodd" clip-rule="evenodd" d="M714.72 617.196C704.592 625.444 695.666 628.259 689.251 628.259C676.146 628.259 652.552 616.503 629.639 570.676C608.029 527.456 593.405 464.699 593.405 393.001C593.405 321.302 608.029 258.545 629.639 215.325C652.552 169.499 676.146 157.742 689.251 157.742C695.666 157.742 704.592 160.558 714.721 168.805C692.327 136.73 665.259 108.16 634.504 84.0829C598.312 102.759 570.627 138.513 551.705 176.358C528.021 223.727 512.602 283.877 507.841 349.434H436.566V436.567L507.841 436.567C512.602 502.124 528.02 562.274 551.705 609.643C570.627 647.488 598.312 683.242 634.504 701.918C665.259 677.841 692.327 649.271 714.72 617.196ZM151.496 701.918C187.687 683.242 215.372 647.488 234.294 609.643C257.979 562.274 273.397 502.124 278.158 436.567L349.433 436.567V349.434H278.158C273.397 283.877 257.979 223.727 234.294 176.358C215.372 138.514 187.687 102.759 151.496 84.0832C120.741 108.16 93.6738 136.729 71.2803 168.804C81.4085 160.558 90.3339 157.742 96.7477 157.742C109.854 157.742 133.447 169.499 156.36 215.325C177.97 258.545 192.594 321.302 192.594 393.001C192.594 464.699 177.97 527.456 156.36 570.676C133.447 616.503 109.854 628.26 96.7477 628.26C90.334 628.26 81.4086 625.444 71.2805 617.198C93.674 649.272 120.742 677.842 151.496 701.918ZM785.098 393.001L785.098 392.655C785.098 392.417 785.097 392.179 785.097 391.942C785.097 392.295 785.098 392.648 785.098 393.001Z" fill="#E59700"/>
<path fill-rule="evenodd" clip-rule="evenodd" d="M241.268 128.401C285.954 102.721 337.762 88.0349 393 88.0349C448.237 88.0349 500.045 102.721 544.731 128.401C544.975 128.015 545.225 127.63 545.482 127.245C564.615 98.5457 592.5 74.9521 607.116 64.4722C545.558 24.2702 472.008 0.901993 393 0.901993C313.991 0.901993 240.441 24.2703 178.883 64.4723C193.5 74.9525 221.384 98.5459 240.517 127.245C240.774 127.63 241.024 128.015 241.268 128.401ZM216.497 144.273C213.437 138.639 206.637 128.218 192.594 114.175C170.367 91.9478 156.449 85.8586 151.293 84.2415C59.7331 156.018 0.901855 267.639 0.901855 393C0.901855 609.55 176.45 785.098 393 785.098C609.55 785.098 785.098 609.55 785.098 393C785.098 267.639 726.267 156.018 634.707 84.2415C629.551 85.8583 615.633 91.9469 593.405 114.175C579.363 128.217 572.562 138.639 569.502 144.272C647.247 199.541 697.965 290.348 697.965 393C697.965 561.428 561.427 697.965 393 697.965C224.572 697.965 88.0347 561.428 88.0347 393C88.0347 290.348 138.753 199.541 216.497 144.273Z" fill="#17191B"/>
</svg>
