<svg width="1024" height="1024" viewBox="0 0 1024 1024" fill="none" xmlns="http://www.w3.org/2000/svg">
<g clip-path="url(#clip0_1_2)">
<path fill-rule="evenodd" clip-rule="evenodd" d="M1024 0H0V1024H1024V0ZM360.268 247.401C392.988 228.597 429.526 215.689 468.433 210.123V468.434H397.158C392.992 411.071 380.667 357.849 361.784 313.706C359.086 307.4 356.255 301.279 353.294 295.358C347.875 284.519 341.737 273.852 334.886 263.708C335.089 263.563 335.293 263.417 335.497 263.273C332.437 257.639 325.637 247.218 311.594 233.175C291.213 212.794 277.819 205.982 271.759 203.744C271.339 203.521 270.918 203.301 270.496 203.083L270.293 203.242C178.733 275.018 119.902 386.639 119.902 512C119.902 595.369 145.921 672.661 190.281 736.198C191.68 738.202 193.098 740.193 194.534 742.17C215.929 771.629 241.325 797.995 269.924 820.469C270.114 820.619 270.305 820.769 270.496 820.918C337.064 873.033 420.904 904.098 512 904.098C603.095 904.098 686.935 873.033 753.503 820.918C757.348 817.909 761.135 814.829 764.862 811.681C781.678 797.478 797.281 781.885 811.497 765.079C814.552 761.467 817.543 757.799 820.469 754.076C823.73 749.926 826.91 745.709 830.005 741.427C831.257 739.694 832.496 737.95 833.72 736.196C878.079 672.66 904.098 595.368 904.098 512V511.889C904.098 511.691 904.098 511.493 904.097 511.295C904.097 511.279 904.097 511.263 904.097 511.246C904.097 511.177 904.097 511.108 904.097 511.04C903.898 428.039 877.909 351.098 833.721 287.805C815.545 261.772 794.291 238.047 770.485 217.16C768.626 215.529 766.752 213.916 764.862 212.32C761.201 209.227 757.482 206.201 753.707 203.242L753.504 203.083C753.081 203.301 752.66 203.522 752.239 203.744C746.179 205.983 732.785 212.795 712.405 233.175C698.363 247.217 691.562 257.639 688.502 263.272L689.114 263.708C682.262 273.852 676.124 284.519 670.705 295.358C647.021 342.727 631.602 402.877 626.841 468.434H555.566V210.123C594.473 215.688 631.011 228.597 663.731 247.401C663.975 247.015 664.225 246.63 664.482 246.245C683.615 217.546 711.5 193.952 726.116 183.472C664.558 143.27 591.008 119.902 512 119.902C432.991 119.902 359.441 143.27 297.883 183.472C312.5 193.953 340.385 217.546 359.517 246.245C359.774 246.63 360.024 247.015 360.268 247.401ZM210.123 468.434C217.754 415.084 239.193 366.189 270.703 325.483C272.256 328.279 273.81 331.224 275.36 334.325C277.499 338.602 279.568 343.069 281.562 347.718C295.521 380.261 305.765 421.673 309.758 468.434H210.123ZM270.704 698.517C239.193 657.812 217.754 608.916 210.123 555.567H309.758C305.195 609.008 292.467 655.463 275.36 689.676C273.81 692.777 272.257 695.722 270.704 698.517ZM468.433 813.877C419.131 806.825 373.632 787.98 334.886 760.292C340.242 752.362 345.162 744.113 349.644 735.711C350.895 733.366 352.112 731.009 353.294 728.643C375.499 684.235 390.438 628.593 396.141 567.793C396.521 563.74 396.86 559.664 397.158 555.567H468.433V813.877ZM689.113 760.293C650.367 787.98 604.869 806.825 555.566 813.877V555.567H626.841C631.602 621.124 647.021 681.274 670.705 728.643C676.124 739.482 682.262 750.149 689.113 760.293ZM813.876 555.567C806.245 608.917 784.806 657.812 753.296 698.518C751.743 695.722 750.189 692.777 748.639 689.676C731.532 655.463 718.804 609.008 714.242 555.567H813.876ZM753.296 325.483C784.807 366.188 806.246 415.084 813.877 468.434H714.242C718.804 414.992 731.533 368.538 748.639 334.325C750.189 331.224 751.743 328.279 753.296 325.483Z" fill="#F1F6FA"/>
<path fill-rule="evenodd" clip-rule="evenodd" d="M163.468 468.434L860.531 468.434L860.531 555.567L163.468 555.567L163.468 468.434Z" fill="#17191B"/>
<path fill-rule="evenodd" clip-rule="evenodd" d="M270.496 820.918C306.687 802.242 334.372 766.488 353.294 728.643C382.142 670.949 398.727 594.293 398.727 512.001C398.727 429.708 382.142 353.053 353.294 295.358C334.372 257.514 306.687 221.759 270.496 203.083C239.741 227.16 212.674 255.729 190.28 287.804C200.408 279.558 209.334 276.742 215.748 276.742C228.854 276.742 252.447 288.499 275.36 334.325C296.97 377.545 311.594 440.302 311.594 512.001C311.594 583.699 296.97 646.456 275.36 689.676C252.447 735.503 228.854 747.259 215.748 747.259C209.334 747.259 200.409 744.444 190.28 736.198C212.674 768.272 239.742 796.842 270.496 820.918Z" fill="#E59700"/>
<path fill-rule="evenodd" clip-rule="evenodd" d="M904.096 513.059C904.097 512.706 904.098 512.354 904.098 512.001C904.098 511.648 904.097 511.295 904.096 510.942C904.097 511.295 904.098 511.648 904.098 512.001C904.098 512.354 904.097 512.707 904.096 513.059ZM833.72 736.196C823.591 744.444 814.665 747.259 808.251 747.259C795.145 747.259 771.552 735.503 748.639 689.676C727.029 646.456 712.405 583.699 712.405 512.001C712.405 440.302 727.029 377.545 748.639 334.325C771.552 288.499 795.145 276.742 808.251 276.742C814.665 276.742 823.592 279.558 833.72 287.805C811.327 255.73 784.259 227.16 753.504 203.083C717.312 221.759 689.627 257.513 670.705 295.358C641.857 353.053 625.272 429.708 625.272 512.001C625.272 594.293 641.857 670.949 670.705 728.643C689.627 766.488 717.312 802.242 753.504 820.918C784.258 796.841 811.327 768.271 833.72 736.196Z" fill="#E59700"/>
<path d="M512 163.468V860.532" stroke="#17191B" stroke-width="87.1329"/>
<path fill-rule="evenodd" clip-rule="evenodd" d="M555.566 555.567L668.839 555.567V468.434L555.566 468.434V555.567ZM468.433 468.434L355.161 468.434L355.161 555.567L468.433 555.567V468.434Z" fill="#E59700"/>
<path fill-rule="evenodd" clip-rule="evenodd" d="M270.496 820.918C306.687 802.242 334.372 766.488 353.294 728.643C382.142 670.949 398.727 594.293 398.727 512.001C398.727 429.708 382.142 353.053 353.294 295.358C334.372 257.514 306.687 221.759 270.496 203.083C239.741 227.16 212.674 255.729 190.28 287.804C200.408 279.558 209.334 276.742 215.748 276.742C228.854 276.742 252.447 288.499 275.36 334.325C296.97 377.545 311.594 440.302 311.594 512.001C311.594 583.699 296.97 646.456 275.36 689.676C252.447 735.503 228.854 747.259 215.748 747.259C209.334 747.259 200.409 744.444 190.28 736.198C212.674 768.272 239.742 796.842 270.496 820.918Z" fill="#E59700"/>
<path fill-rule="evenodd" clip-rule="evenodd" d="M904.096 513.059C904.097 512.706 904.098 512.354 904.098 512.001C904.098 511.648 904.097 511.295 904.096 510.942C904.097 511.295 904.098 511.648 904.098 512.001C904.098 512.354 904.097 512.707 904.096 513.059ZM833.72 736.196C823.591 744.444 814.665 747.259 808.251 747.259C795.145 747.259 771.552 735.503 748.639 689.676C727.029 646.456 712.405 583.699 712.405 512.001C712.405 440.302 727.029 377.545 748.639 334.325C771.552 288.499 795.145 276.742 808.251 276.742C814.665 276.742 823.592 279.558 833.72 287.805C811.327 255.73 784.259 227.16 753.504 203.083C717.312 221.759 689.627 257.513 670.705 295.358C641.857 353.053 625.272 429.708 625.272 512.001C625.272 594.293 641.857 670.949 670.705 728.643C689.627 766.488 717.312 802.242 753.504 820.918C784.258 796.841 811.327 768.271 833.72 736.196Z" fill="#E59700"/>
<path fill-rule="evenodd" clip-rule="evenodd" d="M555.566 555.567L668.839 555.567V468.434L555.566 468.434V555.567ZM468.433 468.434L355.161 468.434L355.161 555.567L468.433 555.567V468.434Z" fill="#E59700"/>
<path fill-rule="evenodd" clip-rule="evenodd" d="M360.268 247.401C404.954 221.721 456.762 207.035 512 207.035C567.237 207.035 619.045 221.721 663.731 247.401C663.975 247.015 664.225 246.63 664.482 246.245C683.615 217.546 711.5 193.952 726.116 183.472C664.558 143.27 591.008 119.902 512 119.902C432.991 119.902 359.441 143.27 297.883 183.472C312.5 193.953 340.384 217.546 359.517 246.245C359.774 246.63 360.024 247.015 360.268 247.401ZM335.497 263.273C332.437 257.639 325.637 247.218 311.594 233.175C289.367 210.948 275.449 204.859 270.293 203.241C178.733 275.018 119.902 386.639 119.902 512C119.902 728.55 295.45 904.098 512 904.098C728.55 904.098 904.098 728.55 904.098 512C904.098 386.639 845.267 275.018 753.707 203.242C748.551 204.858 734.633 210.947 712.405 233.175C698.363 247.217 691.562 257.639 688.502 263.272C766.247 318.541 816.965 409.348 816.965 512C816.965 680.428 680.427 816.965 512 816.965C343.572 816.965 207.035 680.428 207.035 512C207.035 409.348 257.753 318.542 335.497 263.273Z" fill="#17191B"/>
</g>
<defs>
<clipPath id="clip0_1_2">
<rect width="1024" height="1024" fill="white"/>
</clipPath>
</defs>
</svg>
